<svg xmlns="http://www.w3.org/2000/svg" width="16" height="16"><g fill="none" fill-rule="evenodd"><path stroke="#7F7F7F" stroke-linecap="round" stroke-linejoin="round" d="m1.87 8 .7-2.74a1 1 0 0 1 .96-.76h10.94a1 1 0 0 1 .97 1.24L15.12 7M6.5 13.5H2A1.5 1.5 0 0 1 .5 12V3.5a1 1 0 0 1 1-1h5a1 1 0 0 1 1 1v1"/><path stroke="#F9FF85" stroke-linecap="round" stroke-linejoin="round" d="M10.5 13.5h3L12 15z"/><path stroke="#6D6D6D" d="M14.5 11.5a1 1 0 1 0 0-2 1 1 0 0 0 0 2Zm-5 0a1 1 0 1 0 0-2 1 1 0 0 0 0 2Z"/></g></svg>