<svg xmlns="http://www.w3.org/2000/svg" width="16" height="16"><g fill="none" fill-rule="evenodd"><path stroke="#757981" stroke-linecap="round" stroke-linejoin="round" d="m1.87 8 .7-2.74a1 1 0 0 1 .96-.76h10.94a1 1 0 0 1 .97 1.24L15.12 7M6.5 13.5H2A1.5 1.5 0 0 1 .5 12V3.5a1 1 0 0 1 1-1h5a1 1 0 0 1 1 1v1"/><path stroke="#F9C509" stroke-linecap="round" stroke-linejoin="round" d="M11.11 9.81a2.32 2.32 0 1 1 2.78 3.28"/><circle cx="12" cy="13" r="1" fill="#66B2FF"/><path stroke="#66B2FF" stroke-linecap="round" stroke-linejoin="round" d="M13.88 14.24a2.32 2.32 0 1 1-2.81-3.27"/><circle cx="13" cy="11" r="1" fill="#F9C509"/></g></svg>