<svg xmlns="http://www.w3.org/2000/svg" width="16" height="16"><g fill="none" fill-rule="evenodd"><path stroke="#6C7380E6" stroke-linecap="round" stroke-linejoin="round" d="M4.5 4.5H12c.83 0 1.5.67 1.5 1.5v.5m-7 7H2A1.5 1.5 0 0 1 .5 12V3.5a1 1 0 0 1 1-1h5a1 1 0 0 1 1 1v1"/><path stroke="#E6B450" stroke-linecap="round" stroke-linejoin="round" d="M11.11 9.81a2.32 2.32 0 1 1 2.78 3.28"/><circle cx="12" cy="13" r="1" fill="#59C2FF"/><path stroke="#59C2FF" stroke-linecap="round" stroke-linejoin="round" d="M13.88 14.24a2.32 2.32 0 1 1-2.81-3.27"/><circle cx="13" cy="11" r="1" fill="#E6B450"/></g></svg>