<svg xmlns="http://www.w3.org/2000/svg" width="16" height="16"><g fill="none" fill-rule="evenodd"><path stroke="#6C7380E6" stroke-linecap="round" stroke-linejoin="round" d="m1.87 8 .7-2.74a1 1 0 0 1 .96-.76h10.94a1 1 0 0 1 .97 1.24L15.12 7M6.5 13.5H2A1.5 1.5 0 0 1 .5 12V3.5a1 1 0 0 1 1-1h5a1 1 0 0 1 1 1v1"/><path stroke="#E6B450" d="M11.5 11a1.5 1.5 0 0 0-3 0v.5h3V11Z"/><path stroke="#7FD962" d="M11 12.5a1.5 1.5 0 0 0 0 3h.5v-3H11Z"/><path stroke="#73B8FF" d="M12.5 13a1.5 1.5 0 0 0 3 0v-.5h-3v.5Z"/><path stroke="#D95757" d="M13 11.5a1.5 1.5 0 0 0 0-3h-.5v3h.5Z"/></g></svg>