<svg xmlns="http://www.w3.org/2000/svg" width="16" height="16"><g fill="none" fill-rule="evenodd"><rect width="13" height="12" x="1.5" y="2.5" stroke="#4c4f69" rx="1.5"/><path stroke="#df8e1d" d="M3 4.5h1"/><path stroke="#40a02b" d="M5 4.5h1"/><path stroke="#1e66f5" stroke-linecap="round" stroke-linejoin="round" d="M7.44 6.94c.14-.59.98-.59 1.12 0a.57.57 0 0 0 .86.35c.51-.3 1.1.28.79.8a.57.57 0 0 0 .35.85c.59.14.59.98 0 1.12a.57.57 0 0 0-.35.86c.3.51-.28 1.1-.8.79a.57.57 0 0 0-.85.35c-.14.59-.98.59-1.12 0a.57.57 0 0 0-.86-.35c-.51.3-1.1-.28-.79-.8a.57.57 0 0 0-.35-.85c-.59-.14-.59-.98 0-1.12a.57.57 0 0 0 .35-.86c-.3-.51.28-1.1.8-.79.33.2.76.03.85-.35Z"/><path stroke="var(undefined)" d="M7.5 9.5h1"/></g></svg>