<svg xmlns="http://www.w3.org/2000/svg" width="16" height="16"><g fill="none" fill-rule="evenodd" stroke-linejoin="round"><path stroke="#4c4f69" stroke-linecap="round" d="M4.5 4.5H12c.83 0 1.5.67 1.5 1.5v.5m-7 7H2A1.5 1.5 0 0 1 .5 12V3.5a1 1 0 0 1 1-1h5a1 1 0 0 1 1 1v1"/><path stroke="#209fb5" d="m9.75 15.5-1.25-4"/><path stroke="#8839ef" stroke-linecap="round" d="M14.25 15.5h-4.5"/><path stroke="#40a02b" stroke-linecap="round" d="m15.5 11.5-1.25 4"/><path stroke="#1e66f5" stroke-linecap="round" d="m8.5 11.5 3.5-3 3.5 3"/><path stroke="#d20f39" stroke-linecap="round" d="m8.5 11.5 3.5-3"/></g></svg>